<?xml version="1.0" encoding="UTF-8" standalone="no"?>
<!-- Created with Inkscape (http://www.inkscape.org/) -->

<svg
 xmlns:dc="http://purl.org/dc/elements/1.1/"
 xmlns:cc="http://creativecommons.org/ns#"
 xmlns:rdf="http://www.w3.org/1999/02/22-rdf-syntax-ns#"
 xmlns:svg="http://www.w3.org/2000/svg"
 xmlns="http://www.w3.org/2000/svg"
 xmlns:sodipodi="http://sodipodi.sourceforge.net/DTD/sodipodi-0.dtd"
 xmlns:inkscape="http://www.inkscape.org/namespaces/inkscape"
 width="48.27977"
 height="45.87133"
 viewBox="0 0 12.774022 12.136789"
 version="1.1"
 id="svg4346"
 inkscape:version="0.92.3 (2405546, 2018-03-11)"
 sodipodi:docname="gpsinv_.svg">
<defs
 id="defs4340" />
<sodipodi:namedview
 id="base"
 pagecolor="#ffffff"
 bordercolor="#666666"
 borderopacity="1.0"
 inkscape:pageopacity="0.0"
 inkscape:pageshadow="2"
 inkscape:zoom="11.2"
 inkscape:cx="17.960492"
 inkscape:cy="17.146277"
 inkscape:document-units="mm"
 inkscape:current-layer="layer1"
 showgrid="false"
 inkscape:pagecheckerboard="true"
 fit-margin-top="0"
 fit-margin-left="0"
 fit-margin-right="0"
 fit-margin-bottom="0"
 units="px"
 inkscape:window-width="1920"
 inkscape:window-height="1027"
 inkscape:window-x="-8"
 inkscape:window-y="-8"
 inkscape:window-maximized="1" />
<metadata
 id="metadata4343">
<rdf:RDF>
<cc:Work
 rdf:about="">
<dc:format>image/svg+xml</dc:format>
<dc:type
 rdf:resource="http://purl.org/dc/dcmitype/StillImage" />
<dc:title></dc:title>
</cc:Work>
</rdf:RDF>
</metadata>
<g
 inkscape:label="Layer 1"
 inkscape:groupmode="layer"
 id="layer1"
 transform="translate(-72.364328,-88.204079)">
<g
 transform="matrix(0.09581953,0,0,0.09581953,78.140424,66.421687)"
 id="layer1-0"
 inkscape:label="Layer 1"
 style="fill:#ffffff">
<path
 inkscape:connector-curvature="0"
 id="path4500"
 d="m 6.3759417,228.5911 c -22.9750177,0 -41.5997727,18.60797 -41.5997727,41.56201 0,6.44548 1.469373,12.5477 4.090902,17.99163 v 4e-4 c 0.929799,1.93076 2.005867,3.7779 3.211618,5.52913 L 6.3759417,352.72645 42.108735,291.4373 c 0.149662,-0.2496 0.296572,-0.50215 0.439846,-0.7547 l 3.64e-4,-6.8e-4 c 1.032813,-1.81324 1.935421,-3.71 2.690008,-5.68046 1.766096,-4.61121 2.736244,-9.61579 2.736244,-14.84736 0,-22.95415 -18.62494,-41.56211 -41.5999589,-41.56211 z m 0,12.57079 c 16.5471543,0 29.9615053,13.40175 29.9615053,29.93371 0,16.53206 -13.414351,29.9341 -29.9615053,29.9341 -16.5472487,0 -29.9614087,-13.40204 -29.9614087,-29.9341 0,-16.53196 13.41416,-29.93371 29.9614087,-29.93371 z m -1.7753429,7.61978 -0.081562,3.56751 -0.081562,3.57379 -1.3931112,0.17983 c -0.7708115,0.10613 -1.83393,0.4314 -2.37685883,0.72424 -0.53408474,0.29382 -1.01603849,0.52573 -1.07570661,0.52573 -0.0540472,0 -0.53781891,-0.72522 -1.05693746,-1.60628 -1.1158784,-1.88389 -3.2105323,-4.57613 -3.5505973,-4.57613 -0.1351181,0 -0.4461352,0.18965 -0.6873823,0.42353 -0.2412471,0.23388 -0.5794844,0.42157 -0.7454585,0.42157 -0.1741303,0 -0.4370945,0.22503 -0.5957968,0.50313 -0.1505461,0.27122 -0.6575089,0.68886 -1.1090783,0.91487 -0.4516382,0.22602 -1.0564865,0.59649 -1.334526,0.8284 -0.272054,0.23388 -0.7100625,0.58666 -0.9649885,0.78417 -0.928256,0.72424 -0.520524,1.3049 2.8800798,4.12508 0.9267623,0.76158 1.6813892,1.54654 1.6813892,1.73374 0,0.18867 -0.3146531,0.70065 -0.6991744,1.13823 -0.3862902,0.43828 -0.9220455,1.22196 -1.2092917,1.73345 -0.5713282,1.07907 -0.5858718,1.08006 -5.2612809,0.18965 -1.424372,-0.26434 -2.776308,-0.41469 -3.009822,-0.33116 -0.414434,0.15133 -0.496045,0.66331 -0.9337,5.91935 l -0.181363,2.22439 7.4044501,-0.3007 -0.1505362,0.88932 c -0.1813629,1.04802 0.6329813,3.91213 1.2449245,4.39473 0.2339753,0.18867 0.4280539,0.48151 0.4280539,0.65642 0,0.31643 -2.3900983,1.74062 -3.8452353,2.28286 -1.138553,0.43827 -2.368608,1.29851 -2.368608,1.66878 0,0.36851 0.771726,1.39383 1.556069,2.08878 0.287472,0.24763 0.520524,0.60238 0.520524,0.78418 0,0.18867 0.104291,0.37636 0.233975,0.42942 0.126952,0.0491 0.676504,0.63187 1.228241,1.28869 0.550466,0.65741 1.1366482,1.19277 1.2948945,1.19277 0.1659446,0 1.4726392,-1.1629 2.8969405,-2.57962 2.4203914,-2.40511 2.6402948,-2.55624 3.1289996,-2.14922 0.2955891,0.23388 1.463117,0.86672 2.6024028,1.4014 l 2.0719736,0.96499 -0.49782397,2.23912 c -0.27200489,1.22953 -0.64748562,2.79228 -0.82888772,3.4775 -0.59668124,2.25455 -0.49065043,2.37611 2.35999619,2.70079 v -0.002 c 1.3784987,0.15919 3.2256654,0.30463 4.1001493,0.30856 l 1.5937934,0.0196 -0.1151697,-3.78272 -0.1106494,-3.79303 0.9022937,-0.059 c 0.4906504,-0.0393 1.320285,-0.28203 1.8337432,-0.53064 0.511483,-0.25747 1.084059,-0.4599 1.265697,-0.4599 0.18042,0 0.536836,-0.19653 0.785355,-0.43925 0.256675,-0.2329 0.594913,-0.38226 0.760887,-0.33903 0.158702,0.0491 0.980809,1.18432 1.810807,2.51055 2.270298,3.6188 2.645828,4.09363 3.143514,3.94328 0.241247,-0.0688 0.506079,-0.21815 0.588525,-0.3233 0.08156,-0.0884 1.016579,-0.79892 2.071974,-1.55194 1.056485,-0.75371 2.156769,-1.60039 2.450137,-1.88605 0.287433,-0.28007 0.679226,-0.51394 0.860628,-0.51394 0.179535,0 0.03636,-0.23388 -0.309248,-0.51984 -0.347278,-0.28694 -0.634809,-0.60238 -0.634809,-0.69377 0,-0.0884 -1.076709,-1.22019 -2.389467,-2.4961 l -2.389555,-2.32255 0.777199,-0.63285 c 0.807072,-0.66428 1.913723,-2.67592 1.921437,-3.52142 0.0074,-0.6014 0.38629,-0.60926 2.571292,-0.059 0.936589,0.22602 2.676752,0.42452 3.859835,0.42452 2.633043,0 2.609832,0.0393 2.804982,-4.29214 l 0.137869,-3.02232 H 26.1454 c -4.198279,0 -4.235906,-0.008 -4.235906,-0.63481 0,-0.67706 -1.063924,-3.52142 -1.508006,-4.0332 -0.315537,-0.3626 0.107898,-0.76157 1.568667,-1.48492 2.783765,-1.3724 4.666033,-2.57156 4.666033,-2.9555 0,-0.17491 -0.301092,-0.62498 -0.662029,-1.01117 -0.369978,-0.39111 -1.403901,-1.62122 -2.293518,-2.74668 -0.889617,-1.11553 -1.755581,-2.03434 -1.921349,-2.03434 -0.165974,0 -0.632942,0.29382 -1.04035,0.64955 -3.919867,3.46109 -5.293207,4.29744 -5.912942,3.5967 -0.07272,-0.0884 -0.609456,-0.41567 -1.182268,-0.71637 -0.564941,-0.30169 -1.199858,-0.70164 -1.395194,-0.88933 -0.204004,-0.18867 -0.536837,-0.39208 -0.739072,-0.45989 -0.295589,-0.0884 -0.295589,-0.41567 0,-1.63743 0.617613,-2.5189 1.078252,-5.57355 0.88323,-5.76065 -0.09886,-0.0884 -1.886159,-0.19948 -3.9748186,-0.21914 z m 1.6622565,20.68446 c 0.8252518,0.0196 1.4846081,1.08055 0.8424486,1.82325 -0.194963,0.21816 -0.5894094,0.40683 -0.8750735,0.40683 -1.1754581,0 -1.5392057,-1.46271 -0.5223909,-2.08032 0.1287306,-0.0688 0.260311,-0.12087 0.3881573,-0.13954 h 8.84e-5 c 0.054047,-0.008 0.1115338,-0.009 0.1668585,-0.009 z"
 style="display:inline;opacity:1;fill:#ffffff;fill-opacity:1;fill-rule:nonzero;stroke:none;stroke-width:0.19302629" />
</g>
</g>
</svg>
