<?xml version="1.0" encoding="UTF-8" standalone="no"?>
<!-- Created with Inkscape (http://www.inkscape.org/) -->

<svg
 xmlns:dc="http://purl.org/dc/elements/1.1/"
 xmlns:cc="http://creativecommons.org/ns#"
 xmlns:rdf="http://www.w3.org/1999/02/22-rdf-syntax-ns#"
 xmlns:svg="http://www.w3.org/2000/svg"
 xmlns="http://www.w3.org/2000/svg"
 xmlns:sodipodi="http://sodipodi.sourceforge.net/DTD/sodipodi-0.dtd"
 xmlns:inkscape="http://www.inkscape.org/namespaces/inkscape"
 width="48.27977"
 height="45.87133"
 viewBox="0 0 12.774022 12.136789"
 version="1.1"
 id="svg4346"
 inkscape:version="0.92.3 (2405546, 2018-03-11)"
 sodipodi:docname="phoneinv_.svg">
<defs
 id="defs4340" />
<sodipodi:namedview
 id="base"
 pagecolor="#ffffff"
 bordercolor="#666666"
 borderopacity="1.0"
 inkscape:pageopacity="0.0"
 inkscape:pageshadow="2"
 inkscape:zoom="11.2"
 inkscape:cx="23.573398"
 inkscape:cy="15.006831"
 inkscape:document-units="mm"
 inkscape:current-layer="layer1"
 showgrid="false"
 inkscape:pagecheckerboard="true"
 fit-margin-top="0"
 fit-margin-left="0"
 fit-margin-right="0"
 fit-margin-bottom="0"
 units="px"
 inkscape:window-width="1920"
 inkscape:window-height="1027"
 inkscape:window-x="-8"
 inkscape:window-y="-8"
 inkscape:window-maximized="1" />
<metadata
 id="metadata4343">
<rdf:RDF>
<cc:Work
 rdf:about="">
<dc:format>image/svg+xml</dc:format>
<dc:type
 rdf:resource="http://purl.org/dc/dcmitype/StillImage" />
<dc:title></dc:title>
</cc:Work>
</rdf:RDF>
</metadata>
<g
 inkscape:label="Layer 1"
 inkscape:groupmode="layer"
 id="layer1"
 transform="translate(-72.364328,-88.204079)">
<g
 transform="translate(72.422739,-196.34578)"
 id="layer1-3"
 inkscape:label="Layer 1"
 style="fill:#ffffff">
<path
 inkscape:connector-curvature="0"
 id="path6283"
 d="m 5.2694538,284.85603 0.067589,0.93928 0.06774,0.94094 -0.3616148,0.0821 c -0.1997614,0.0473 -0.4709034,0.15942 -0.6061883,0.25013 -0.1330635,0.0905 -0.2537555,0.16392 -0.2694282,0.16543 -0.014247,9.4e-4 -0.1595694,-0.1771 -0.318022,-0.3958 -0.3403757,-0.46692 -0.9580811,-1.12154 -1.0474371,-1.11301 -0.035514,0.003 -0.1124005,0.0614 -0.1699259,0.12882 -0.057548,0.0673 -0.1417312,0.12529 -0.1852871,0.12945 -0.045754,0.005 -0.108924,0.0701 -0.1435725,0.14715 -0.032748,0.0753 -0.1553768,0.19763 -0.268358,0.26832 -0.1129944,0.0706 -0.2628286,0.18292 -0.3300296,0.25127 -0.065637,0.068 -0.1716595,0.17187 -0.2336561,0.22997 -0.2256838,0.21345 -0.1041724,0.35571 0.8600859,1.01122 0.262534,0.17653 0.4805269,0.36404 0.4852206,0.41319 0.00474,0.0496 -0.065324,0.19195 -0.1553123,0.31675 -0.090399,0.12477 -0.211664,0.34411 -0.2742849,0.48571 -0.1230688,0.29778 -0.1268579,0.29849 -1.377461,0.182 -0.38082746,-0.0339 -0.73958331,-0.0398 -0.79886222,-0.0122 -0.10519925,0.05 -0.11376361,0.18665 -0.0969551,1.57841 l 0.008337,0.58925 1.93747312,-0.2651 -0.017335,0.23768 c -0.02138,0.27988 0.2647799,1.01187 0.4375363,1.12329 0.066138,0.0437 0.1244793,0.11583 0.128852,0.16159 0.00796,0.0832 -0.5839794,0.5171 -0.9526618,0.69603 -0.2880736,0.14367 -0.5897396,0.4006 -0.5804506,0.49786 0.00937,0.0968 0.2376251,0.34686 0.4610848,0.50974 0.08174,0.0582 0.1518775,0.14505 0.156431,0.19272 0.00474,0.0496 0.036508,0.0959 0.071937,0.10697 0.034737,0.0105 0.1936079,0.14907 0.3550444,0.30761 0.1610414,0.15864 0.3284646,0.28514 0.370037,0.28116 0.04349,-0.004 0.3578191,-0.34245 0.6964433,-0.75037 0.5754746,-0.69251 0.6294089,-0.73807 0.7679639,-0.64337 0.083513,0.054 0.4063518,0.19102 0.7190443,0.30287 l 0.5684449,0.20176 -0.074418,0.60047 c -0.040657,0.32984 -0.099933,0.74988 -0.1305172,0.93444 -0.1000725,0.60722 -0.069493,0.63659 0.6875891,0.65033 l -3.98e-5,-4.1e-4 c 0.3660764,0.007 0.8551638,-9.3e-4 1.0850148,-0.0219 l 0.4191098,-0.0346 -0.1250542,-0.99092 -0.1244859,-0.99349 0.2355308,-0.0399 c 0.1279444,-0.0229 0.3398359,-0.10745 0.4684832,-0.18568 0.128022,-0.0804 0.2729891,-0.14783 0.3207045,-0.15238 0.047572,-0.005 0.1363175,-0.0654 0.1956086,-0.13502 0.061715,-0.0679 0.1464543,-0.11522 0.1910968,-0.10792 0.042959,0.0103 0.2873015,0.28654 0.5386073,0.61409 0.6872056,0.89372 0.7980123,1.00905 0.9249673,0.95707 0.061508,-0.0259 0.1272825,-0.0699 0.1464141,-0.0999 0.01928,-0.0279 0.246927,-0.23519 0.50531,-0.45941 0.258586,-0.22477 0.526581,-0.47451 0.596489,-0.55694 0.06872,-0.0807 0.165365,-0.15215 0.213133,-0.1567 0.04719,-0.005 0.0037,-0.0623 -0.09441,-0.1286 -0.09853,-0.0669 -0.181655,-0.14244 -0.183939,-0.16632 -0.0025,-0.0254 -0.313449,-0.29362 -0.690312,-0.59586 l -0.6859755,-0.55038 0.1878586,-0.18558 c 0.1952869,-0.19468 0.4357999,-0.75113 0.4166039,-0.97342 -0.01263,-0.15829 0.08631,-0.16956 0.673967,-0.0819 0.251694,0.0358 0.713514,0.0444 1.024295,0.0147 0.691691,-0.0661 0.686809,-0.0562 0.6295,-1.19809 l -0.03984,-0.79723 -1.113639,0.10635 c -1.102869,0.10531 -1.113059,0.10371 -1.12876,-0.0608 -0.01699,-0.17796 -0.3679558,-0.89839 -0.4974588,-1.02165 -0.092145,-0.0875 0.00947,-0.20266 0.3751458,-0.42946 0.696866,-0.43038 1.161107,-0.79264 1.151473,-0.89351 -0.0043,-0.0456 -0.09484,-0.15664 -0.19934,-0.24909 -0.107078,-0.0935 -0.409443,-0.39063 -0.671383,-0.66395 -0.261696,-0.27076 -0.5124295,-0.49023 -0.5559863,-0.48608 -0.043503,0.004 -0.1587616,0.0931 -0.2568422,0.19674 -0.9429323,1.00756 -1.2826953,1.26149 -1.4630972,1.09297 -0.022006,-0.0219 -0.170233,-0.0936 -0.3282952,-0.15838 -0.1561154,-0.0649 -0.3327918,-0.1541 -0.3888557,-0.19888 -0.058475,-0.0445 -0.1507614,-0.0896 -0.2057387,-0.10212 -0.079931,-0.0165 -0.088069,-0.10178 -0.041075,-0.43016 0.099014,-0.67721 0.1431152,-1.49109 0.087311,-1.53537 -0.028457,-0.0232 -0.5005315,-0.005 -1.049739,0.0419 z m 0.933574,2.68468 c 0.7178936,-0.0968 1.4724439,0.1 2.0645631,0.60721 0.5920084,0.5072 0.9023062,1.22242 0.9168707,1.94655 l -0.4288423,0.033 c -0.00549,-0.61424 -0.2654176,-1.22287 -0.7675025,-1.65302 -0.5021978,-0.4302 -1.14402,-0.59376 -1.7520488,-0.50483 z m 0.045754,0.785 c 0.5083456,-0.0231 1.0261128,0.13886 1.4421403,0.49528 0.4754059,0.40723 0.7201906,0.98471 0.7229501,1.5664 l -0.4288508,0.033 c 0.00672,-0.47175 -0.1881849,-0.94313 -0.5736199,-1.27334 -0.3855403,-0.3303 -0.8812244,-0.45006 -1.3464527,-0.37097 l -0.03289,-0.42928 c 0.071908,-0.0109 0.1442766,-0.0178 0.2169026,-0.0211 z m -2.3380003,0.40258 c 0.195907,-0.01 0.5026089,0.0465 0.7456212,0.41084 0.3888217,0.58288 0.3431561,0.96007 0.089385,1.15904 -0.2537412,0.19896 -0.6102633,0.61498 -0.090001,1.15783 0.262912,0.27434 0.611386,0.57802 0.9282712,0.79956 0.6162417,0.43079 0.9731617,0.0143 1.1308404,-0.26687 0.1576691,-0.28127 0.5234082,-0.3842 1.1590409,-0.0894 0.6356317,0.29478 0.5156794,0.8719 0.5156794,0.8719 0,0 -0.1314228,0.62318 -1.2401584,0.97785 -1.1087375,0.35466 -2.7975885,-1.04345 -2.7975885,-1.04345 -0.2606915,-0.24367 -1.574878,-1.5306 -1.4123322,-2.56724 0.1803404,-1.15002 0.7760565,-1.37514 0.7760565,-1.37514 0,0 0.077563,-0.0293 0.1951558,-0.0349 z m 2.0802974,0.43141 c 0.3859636,-0.0263 0.7821617,0.0924 1.0984463,0.36339 0.3613741,0.30959 0.5425007,0.7528 0.5332022,1.19506 l -0.4321512,0.0333 c 0.019836,-0.33209 -0.1090518,-0.66967 -0.3805613,-0.90231 -0.27166,-0.23268 -0.6248847,-0.30812 -0.9500737,-0.23745 l -0.033174,-0.43216 c 0.054449,-0.01 0.109334,-0.0161 0.1644828,-0.0199 z m 0.1904735,1.0952 c 0.2325156,-0.0574 0.4705556,0.22588 0.3103781,0.45114 -0.045782,0.0622 -0.1444289,0.1218 -0.2195283,0.12896 -0.3088001,0.0294 -0.4410859,-0.34583 -0.189404,-0.53359 0.031829,-0.0233 0.065324,-0.0384 0.098559,-0.0465 z"
 style="display:inline;opacity:0.98999999;fill:#ffffff;fill-opacity:1;fill-rule:nonzero;stroke:none;stroke-width:0.05093783" />
</g>
</g>
</svg>
